<svg xmlns="http://www.w3.org/2000/svg" xmlns:xlink="http://www.w3.org/1999/xlink"><defs><style>
    .sprite-symbol-usage {display: none;}
    .sprite-symbol-usage:target {display: inline;}
  </style><symbol viewBox="0 0 24 24" id="magnify"><path d="M9.5,3A6.5,6.5 0 0,1 16,9.5C16,11.11 15.41,12.59 14.44,13.73L14.71,14H15.5L20.5,19L19,20.5L14,15.5V14.71L13.73,14.44C12.59,15.41 11.11,16 9.5,16A6.5,6.5 0 0,1 3,9.5A6.5,6.5 0 0,1 9.5,3M9.5,5C7,5 5,7 5,9.5C5,12 7,14 9.5,14C12,14 14,12 14,9.5C14,7 12,5 9.5,5Z" /></symbol><symbol viewBox="0 0 32 48" id="map-pin">
 <path d="m11.056 33.48c-2.0412-3.697-4.3461-7.255-6.2184-11.042-2.1914-5.24 0.0618-11.841 4.9893-14.662 2.2561-1.2683 4.9391-2.0657 7.5361-1.6771 4.5908 0.55599 8.7155 3.9091 10.101 8.3368 1.1926 3.6986 0.32928 7.8359-1.8711 10.984-3.194 5.528-6.333 11.088-9.589 16.58-1.688-2.817-3.305-5.677-4.948-8.52z" />
</symbol><symbol viewBox="0 0 24 24" id="minus"><path d="M19,13H5V11H19V13Z" /></symbol><symbol viewBox="0 0 24 24" id="plus"><path d="M19,13H13V19H11V13H5V11H11V5H13V11H19V13Z" /></symbol></defs><use id="magnify-usage" xlink:href="#magnify" class="sprite-symbol-usage" /><use id="map-pin-usage" xlink:href="#map-pin" class="sprite-symbol-usage" /><use id="minus-usage" xlink:href="#minus" class="sprite-symbol-usage" /><use id="plus-usage" xlink:href="#plus" class="sprite-symbol-usage" /></svg>