<svg xmlns="http://www.w3.org/2000/svg" xmlns:xlink="http://www.w3.org/1999/xlink"><defs><style>
    .sprite-symbol-usage {display: none;}
    .sprite-symbol-usage:target {display: inline;}
  </style><symbol viewBox="0 0 24 24" id="magnify"><path d="M9.5,3A6.5,6.5 0 0,1 16,9.5C16,11.11 15.41,12.59 14.44,13.73L14.71,14H15.5L20.5,19L19,20.5L14,15.5V14.71L13.73,14.44C12.59,15.41 11.11,16 9.5,16A6.5,6.5 0 0,1 3,9.5A6.5,6.5 0 0,1 9.5,3M9.5,5C7,5 5,7 5,9.5C5,12 7,14 9.5,14C12,14 14,12 14,9.5C14,7 12,5 9.5,5Z" /></symbol><symbol viewBox="0 0 24 24" id="minus"><path d="M19,13H5V11H19V13Z" /></symbol><symbol viewBox="0 0 24 24" id="plus"><path d="M19,13H13V19H11V13H5V11H11V5H13V11H19V13Z" /></symbol></defs><use id="magnify-usage" xlink:href="#magnify" class="sprite-symbol-usage" /><use id="minus-usage" xlink:href="#minus" class="sprite-symbol-usage" /><use id="plus-usage" xlink:href="#plus" class="sprite-symbol-usage" /></svg>